<svg id="组_363" data-name="组 363" xmlns="http://www.w3.org/2000/svg" width="283.408" height="55.561" viewBox="0 0 283.408 55.561">
  <path id="路径_2" data-name="路径 2" d="M193.807,322.53v10.444a29.417,29.417,0,0,0-16.94,5.88s-5.968,4.038-7.548,10.884c0,0-2.195,7.372,7.548,10.093v1.053s-7.9-.176-12.639-5.266c0,0-5.441-4.916-1.843-14.394a31.128,31.128,0,0,1,3.335-5.354s11.147-13.6,28.086-13.34Zm-12.726,20.187v14.658l12.726-6.671V335.871l-12.726,6.847Zm16.763-10.444v1.141s5,1.229,6.583,4.125a9.925,9.925,0,0,1-.79,10.8s-6.758,11.322-22.469,12.112v17.641l12.726-6.758v-3.16s9.654-3.511,15.359-10.62c0,0,8.426-8.689,2.458-18.694C211.712,338.855,208.288,333.062,197.844,332.273Z" transform="translate(-161.155 -322.527)" fill="#0087d7" fill-rule="evenodd"/>
  <g id="组_1" data-name="组 1" transform="translate(64.443 6.13)">
    <path id="路径_3" data-name="路径 3" d="M280.732,334.621a10.992,10.992,0,0,1-1.2,1.62q-.738.552-.575.819c.1.165.436.123,1.022-.122.247-.056.554-.137.92-.245a3.316,3.316,0,0,1,.673-.186q.921-.325.634-1.477c-.342-1-.829-1.133-1.471-.409Zm4.351,1.578a14.417,14.417,0,0,1,1.942.553,2.788,2.788,0,0,0,1.287.371q.366-.084.063-.494a6.194,6.194,0,0,0-.8-.777,9.235,9.235,0,0,1-1.063-1.168,1,1,0,0,0-1.266-.144,1.4,1.4,0,0,0-.756.9c-.095.343.1.595.592.759Zm-1.858,3.2a8.393,8.393,0,0,1,2.43,2.439,1.7,1.7,0,0,0,1.736.615,5.324,5.324,0,0,0,2.311-1.084c.324-.385.136-.6-.575-.658a5.25,5.25,0,0,1-1.593-.287,8.969,8.969,0,0,1-2.043-.8,10.954,10.954,0,0,1-1.531-1.476,1.418,1.418,0,0,0,0-.595.984.984,0,0,0-.613-.76.522.522,0,0,0-.631.063.542.542,0,0,0-.184.49q.12,2.278-4.167,3.773a.8.8,0,0,0-.554.679q.021.388.614.84a1.3,1.3,0,0,0,1.265,0,7.56,7.56,0,0,0,3.434-3.076.353.353,0,0,1,.1-.164Zm-6.944,1.333a.772.772,0,0,0,.572.207c.205-.014.456-.028.756-.042.328,0,.516-.095.572-.287.042-.164-.136-.357-.533-.573a1.226,1.226,0,0,1-.408-.266.732.732,0,0,0-.467-.228c-.3-.042-.505.123-.614.494a.616.616,0,0,0,.122.7Zm.121,3.034a.758.758,0,0,0,.635.143,5.542,5.542,0,0,1,.816-.122c.38-.014.592-.143.634-.388.014-.179-.213-.378-.676-.595a1.711,1.711,0,0,1-.45-.265.86.86,0,0,0-.53-.207c-.366,0-.593.213-.673.637a.82.82,0,0,0,.244.8Zm-2.635-9.7a1.569,1.569,0,0,0-1.329.616.873.873,0,0,0-.223.983,1.115,1.115,0,0,0,1.307.185,6.452,6.452,0,0,1,2.472-.164,1.23,1.23,0,0,0,1.164-.329.648.648,0,0,0,.042-.759c-.136-.217-.8-.329-1.984-.329a10.4,10.4,0,0,1-1.45-.2Zm2.35,4.633a1.157,1.157,0,0,1,.307,0,1.7,1.7,0,0,0,1.551-.615.562.562,0,0,0,.063-.8c-.177-.221-.662-.3-1.45-.248q-.816.084-1.841.1a5.3,5.3,0,0,1-1.366-.164,1.594,1.594,0,0,0-1.37.186c-.422.287-.816.567-1.185.84a.718.718,0,0,0-.181,1.064c.174.263.442.308.795.144a7.347,7.347,0,0,1,2.615-.49,6.2,6.2,0,0,1,.163.759.112.112,0,0,0-.021.08,10.372,10.372,0,0,1-3.472,3.856,1.126,1.126,0,0,0-.572.941.917.917,0,0,0,.614.84c.3.126.735.014,1.307-.325a9.814,9.814,0,0,0,2.043-2.5.382.382,0,0,1,.144-.248q-.064,2.588-.122,4.759a3.282,3.282,0,0,0,.286,1.7c.216.452.464.686.735.7.245,0,.451-.161.611-.49a3.011,3.011,0,0,0,.268-1.312q-.147-5.354-.143-7.464a3.576,3.576,0,0,1,.223-1.312Zm5.024,4.367a1.363,1.363,0,0,0-1.1.494,1.052,1.052,0,0,0,.122.86c.084.245.251,1.092.513,2.541a1.96,1.96,0,0,0,.673,1.354.862.862,0,0,0,.941-.021,4.261,4.261,0,0,1,2.758-.08,1.928,1.928,0,0,0,1.287-.063c.624-.3,1.015-1.106,1.165-2.418a3.159,3.159,0,0,1,.244-.966,1,1,0,0,0,.143-.941q-.57-.86-3.165-.923-1.124,0-3.577.164ZM283.1,346.7a1.575,1.575,0,0,1-.858.021.7.7,0,0,1-.328-.472,2.843,2.843,0,0,1-.122-1.6c.041-.094.205-.179.491-.245q2.84-.431,3.636.06.262.267.018,1.683a.736.736,0,0,1-.286.41,2.3,2.3,0,0,1-1.143.063C284.1,346.616,283.632,346.644,283.1,346.7Z" transform="translate(-270.151 -333.37)" fill="#73645f"/>
    <path id="路径_4" data-name="路径 4" d="M312.472,333.891a6.968,6.968,0,0,0-1.817.084,1.923,1.923,0,0,0-1.206.8.974.974,0,0,0,.021,1c.258.343.858.343,1.8,0a10.427,10.427,0,0,1,4.78-.388,2.008,2.008,0,0,0,2.228-.923.794.794,0,0,1,.063-.161c.053-.262-.258-.391-.941-.391q-4.779,0-4.922-.021Zm2.555,6.235a1.617,1.617,0,0,0,1.2-.063q.45-.142.533-.882a2.138,2.138,0,0,1,.223-.615,3.021,3.021,0,0,0,.206-1.494,1.2,1.2,0,0,0-.533-.494,6.807,6.807,0,0,0-2.064-.227c-.408,0-.871.014-1.388.042-.613.014-1.22,0-1.816-.042a.789.789,0,0,0-.861.371c-.122.179-.073.637.143,1.372a9.966,9.966,0,0,1,.063,1.109,1,1,0,0,0,.471,1c.178.137.543.13,1.1-.021a5.584,5.584,0,0,1,2.72-.06ZM312.9,337.48q.759-.02,1.694.021c.492.01.778.1.861.266a1.389,1.389,0,0,1-.083.388c-.042.123-.073.231-.1.329a.319.319,0,0,1-.083.144l-2.347.122c-.369.014-.592-.028-.676-.122-.08-.056-.136-.207-.164-.452a2.466,2.466,0,0,1,0-.493,1.453,1.453,0,0,1,.9-.2Zm.227,7.422a2.457,2.457,0,0,1,.08,1.025,8.106,8.106,0,0,0,0,1.966c.056.494.293.745.715.759.342.014.558-.287.656-.9a5.879,5.879,0,0,0-.042-1.927,2.314,2.314,0,0,1,.021-.942,14.1,14.1,0,0,1,1.614.224.654.654,0,0,0,.286-.017.9.9,0,0,0,.408-.494.941.941,0,0,0-.021-.595c-.122-.206-.6-.308-1.43-.308a6.344,6.344,0,0,1,.551-.615.929.929,0,0,0-.063-.9,2.021,2.021,0,0,1,1.328.409c.042.014.084.2.122.553q.084.944.126,2.5a2.358,2.358,0,0,0,.142,1.127.516.516,0,0,0,.468.307.721.721,0,0,0,.572-.371q.434-.488.247-3.2a4.7,4.7,0,0,1,.042-.882,1.658,1.658,0,0,0-.289-1.434,1.621,1.621,0,0,0-1.123-.49q-2.656-.126-6.087.038a3.309,3.309,0,0,0-1.9.329q-.387.247-.408,1.865,0,.43-.063,2.6a2.3,2.3,0,0,0,.184,1.211.6.6,0,0,0,.513.308c.216,0,.443-.231.673-.7.042-.1.095-1.141.164-3.139q0-.677.429-.8a2.042,2.042,0,0,1,.551-.122.9.9,0,0,0,.143.245,3.524,3.524,0,0,1,.715,1.067.42.42,0,0,0-.184,0,1.96,1.96,0,0,0-1.245.409.611.611,0,0,0-.021.882q.33.326,1.307.1c.206-.042.436-.074.694-.1.014-.014.056-.014.125,0Zm.774-1.312a3.054,3.054,0,0,0-.509,0,9.452,9.452,0,0,0-.185-1.414,8.023,8.023,0,0,1,1.531-.042,3.193,3.193,0,0,1-.181,1.084,1.241,1.241,0,0,0-.164.413l-.491-.042Zm9.5,4.059a2.454,2.454,0,0,0,1.715-.595,8.92,8.92,0,0,1,1.206-.962,1.354,1.354,0,0,0,.774-1.109,1.751,1.751,0,0,0-.61-1.19,1.672,1.672,0,0,0-1.164-.574.573.573,0,0,0-.635.658c0,.08.08.172.244.266q.738.74,0,1.333a2.467,2.467,0,0,1-2.43.367c-.464-.137-.7-.339-.714-.613a.725.725,0,0,1,.471-.637,3.341,3.341,0,0,0,1.53-1.97c.014-.2.035-.423.063-.654a10.284,10.284,0,0,1,1.287.021,1.946,1.946,0,0,0,1.715-.329,2.062,2.062,0,0,0,.513-1.743,4.069,4.069,0,0,1,.181-.78,1.394,1.394,0,0,0-.45-1.413,5.415,5.415,0,0,0-3-.389c.042-.466.087-.959.143-1.477a2.271,2.271,0,0,0-.328-1.62.712.712,0,0,0-.652-.409.95.95,0,0,0-.656.388,1.93,1.93,0,0,0-.324,1.355c.011.573.038,1.175.08,1.8-1.851,0-2.894.112-3.124.329a1.471,1.471,0,0,0-.328,1.456c.042.507.08,1.032.122,1.578a1.571,1.571,0,0,0,.592,1.438,2.463,2.463,0,0,0,1.572,0,4.906,4.906,0,0,1,1.245-.164,1.959,1.959,0,0,1-.142.756,3.573,3.573,0,0,1-1.307,1.13,2,2,0,0,0-1.165,1.743c0,.546.335.9,1,1.047a3.692,3.692,0,0,1,1.165.49,2.7,2.7,0,0,0,1.408.472Zm-.963-7.135a7.256,7.256,0,0,1-1.694-.021,1.471,1.471,0,0,1-.185-.595c-.08-.616-.087-.948-.017-1a4.616,4.616,0,0,1,1.858-.224c.014.588.028,1.2.038,1.844Zm1.556-1.885a3.988,3.988,0,0,1,1.593.143,1.464,1.464,0,0,1,.1.655,1.722,1.722,0,0,1-.1.881s-.565.056-1.7.164C323.9,339.8,323.938,339.188,323.994,338.629Z" transform="translate(-286.063 -333.277)" fill="#73645f"/>
    <path id="路径_5" data-name="路径 5" d="M355.922,336.016a11.836,11.836,0,0,1,1.673,1.19q1.412,1.129,2.248,1.949a18.431,18.431,0,0,0,1.921,1.7,2.073,2.073,0,0,0,1.838.084,3.721,3.721,0,0,0,2.043-1.008c.136-.259,0-.424-.408-.49a11.8,11.8,0,0,1-3.064-1.291,31.523,31.523,0,0,1-4.044-2.523c-1.036-.794-1.562-1.319-1.572-1.578a1.234,1.234,0,0,0-.555-.781.859.859,0,0,0-.572-.308,1,1,0,0,0-.774.371,5.322,5.322,0,0,0-.449.9q-.738,1.349-5.477,3.894a16.871,16.871,0,0,1-2,.861c-.38.136-.6.322-.652.553a1.065,1.065,0,0,0,.467.9,2.47,2.47,0,0,0,.921.615,2.274,2.274,0,0,0,1.206-.371,41.686,41.686,0,0,0,5.125-4.038,1.943,1.943,0,0,1,2.127-.637Zm-4.678,10.438c-.83.094-1.388.143-1.674.143a1.089,1.089,0,0,0-.983.472c-.449.613-.509,1.12-.181,1.515.366.381.885.4,1.551.063a12.609,12.609,0,0,1,8.517-.822,7.815,7.815,0,0,1,2.248.86q.978.494,1.959-.675c.178-.245.37-.5.572-.78.206-.368.09-.581-.345-.634a40.8,40.8,0,0,0-6.335-.535c0-.038.028-1.019.084-2.929a5.338,5.338,0,0,1,2.451.1,1.091,1.091,0,0,0,1.185-.063,1.99,1.99,0,0,0,.613-.9.54.54,0,0,0-.205-.595,7.926,7.926,0,0,0-2.779-.161c-.5.014-.851.014-1.042,0a.58.58,0,0,0-.143.018,3.826,3.826,0,0,1,.143-.921,2.171,2.171,0,0,0-.307-1.743.947.947,0,0,0-1.164-.409c-.5.137-.715.539-.631,1.207a29.2,29.2,0,0,1,.223,4.717,6.669,6.669,0,0,0,.041,1.7,16.316,16.316,0,0,0-2.308.165,1.736,1.736,0,0,0-.063-.78,9.091,9.091,0,0,1-.2-2.785,1.229,1.229,0,0,0-1.227-1.333.649.649,0,0,0-.635.451,3.24,3.24,0,0,0,.185,1.742q.183,1.108.387,2.232A3.206,3.206,0,0,0,351.243,346.454Z" transform="translate(-301.184 -332.921)" fill="#73645f"/>
    <path id="路径_6" data-name="路径 6" d="M397.032,335.744q-.675-.021-1.45-.042a20.446,20.446,0,0,0-.063-2.439.418.418,0,0,1-.038-.063.73.73,0,0,0-.471-.3.622.622,0,0,0-.592.287,6.207,6.207,0,0,0-.265,2.5,9.382,9.382,0,0,0-1.042.021,8.056,8.056,0,0,0-.164-2.337.577.577,0,0,0-.471-.308.638.638,0,0,0-.592.287,6.867,6.867,0,0,0-.2,2.379q-.7-.021-1.37.021a3.276,3.276,0,0,1-.244-.882.708.708,0,0,0-.206-.511.955.955,0,0,0-.694-.287,1.24,1.24,0,0,0-.651.122.738.738,0,0,0-.307.469,1.083,1.083,0,0,0,.53.843c.084.081.164.171.244.266a2.913,2.913,0,0,0-.488,0,5.719,5.719,0,0,0-3.085.7q-.7.635-.367,1.19c.286.381.788.472,1.51.265a24.434,24.434,0,0,1,11.3-.819,12.624,12.624,0,0,1,2.922.941,1.388,1.388,0,0,0,1.43-.122,5.987,5.987,0,0,0,1.247-1.456c.244-.423.108-.637-.407-.637q-.633.021-4.435-.06a1.228,1.228,0,0,1,.307-.122.85.85,0,0,0,.634-.7,1.126,1.126,0,0,0-.533-.921c-.38-.3-.68-.287-.9.042-.369.546-.729,1.106-1.084,1.68Zm-3.943,8.653c-.014.668-.031,1.312-.06,1.924a3.34,3.34,0,0,0,.283,1.7c.216.452.457.682.728.7.241,0,.443-.164.6-.494a2.983,2.983,0,0,0,.265-1.312c-.042-.941-.073-1.774-.1-2.5a8.032,8.032,0,0,1,3.124.735q1.166.494,2.329-1.392c.219-.368.1-.546-.345-.532-.464.014-1.248,0-2.35-.042-.547-.014-1.478-.035-2.8-.063v-.738c.913-.011,1.907-.007,2.981.021q.82,0,.962-.367a.575.575,0,0,0-.1-.616q-.372-.326-3.842-.245a3.132,3.132,0,0,1,.265-.987.152.152,0,0,1,.1,0,8.607,8.607,0,0,1,1.635.371,1.571,1.571,0,0,0,1.778-.371,1.229,1.229,0,0,0,.407-.879c-.052-.384-.763-.514-2.122-.391l-1.143.063a1.721,1.721,0,0,1,.53-.409.848.848,0,0,0,.408-.78,1.027,1.027,0,0,0-.694-.717c-.422-.164-.694-.077-.816.266-.014.095-.091.388-.227.882-.136.329-.237.595-.307.8a13.482,13.482,0,0,0-1.9.021q-.2-.635-.429-1.291a1.1,1.1,0,0,0-1.1-.451.743.743,0,0,0-.735.391.555.555,0,0,0,.181.738,2.856,2.856,0,0,1,.777.613,6.82,6.82,0,0,1-.694-.06,1.638,1.638,0,0,0-1.593.511.983.983,0,0,0-.286.882c.122.423.464.542,1.022.35a10.812,10.812,0,0,1,3.043-.536,2.671,2.671,0,0,1,.244,1.008q-3.389-.084-3.859.325a.647.647,0,0,0-.185.8q.267.514,1.37.308a17.032,17.032,0,0,1,2.694-.228v.7a15.692,15.692,0,0,0-4.556.346,1.512,1.512,0,0,0-.509.287c-.408.371-.513.717-.307,1.047q.366.493,1.328.223a11.05,11.05,0,0,1,4-.612Zm-2.981,1.333a10.422,10.422,0,0,0-2.164,2.089.152.152,0,0,0,.038.228.717.717,0,0,0,.45.017c.708-.245,1.412-.49,2.106-.735a2.936,2.936,0,0,0,1.06-.577.779.779,0,0,0,.248-.735.879.879,0,0,0-.656-.738,1.3,1.3,0,0,0-1.081.452Zm6.147,1.126q.82.305,2.126.9a2.323,2.323,0,0,0,1.144.43c.216-.056.251-.206.1-.451a3.978,3.978,0,0,0-.694-.78,15.525,15.525,0,0,1-1.286-1.375.923.923,0,0,0-1.144-.224,1.284,1.284,0,0,0-.756.78C395.651,346.44,395.818,346.679,396.254,346.857Z" transform="translate(-317.071 -332.894)" fill="#73645f"/>
    <path id="路径_7" data-name="路径 7" d="M425.656,341.936c.38,0,.775-.007,1.185-.021h1.022a.146.146,0,0,1,.017.021q-.057,2.913-.017,4.017a2.564,2.564,0,0,0,.551,1.722.779.779,0,0,0,.958.228q.7-.331.533-1.7a42.789,42.789,0,0,1-.411-7.548,15.816,15.816,0,0,1,.491-4.119,1.066,1.066,0,0,0-.143-1.046q-.308-.268-1.98-.123a7.5,7.5,0,0,1-2.311-.063,1.289,1.289,0,0,0-.9-.042,1.808,1.808,0,0,0-.47.371,1.439,1.439,0,0,0-.185.861q.246,7.2-.51,9.535a21.712,21.712,0,0,1-.92,2.131,2.8,2.8,0,0,0-.672,1.679.735.735,0,0,0,.773.658q.821.063,1.593-1.109a13.3,13.3,0,0,0,1.391-5.452Zm1.224-1.62a5.92,5.92,0,0,1-1.143-.042q.021-.8.042-1.68c.366,0,.75-.014,1.143-.042a8.527,8.527,0,0,1,1.063.042q-.063.882-.084,1.722Zm.084-3.359a10.439,10.439,0,0,1-1.165-.042,7.58,7.58,0,0,1,.1-1.621,3.076,3.076,0,0,1,1.165-.472,2.481,2.481,0,0,1,.941.245,6.265,6.265,0,0,1,.038,1.89c-.174-.014-.537-.014-1.08,0Zm9.131,8.016a7.664,7.664,0,0,1,1.429,2.212c.22.874.649,1.281,1.286,1.21a4.31,4.31,0,0,0,2.287-.654c.384-.249.586-.472.614-.679,0-.137-.185-.294-.551-.472a44.051,44.051,0,0,1-4.229-2.7A4.993,4.993,0,0,0,438,340.75a.968.968,0,0,0-.429-.7.8.8,0,0,0-.634-.1.611.611,0,0,0-.471.329,1.206,1.206,0,0,0,0,.819,2.408,2.408,0,0,1-.652,2.05,16.8,16.8,0,0,1-2.207-1.68,3.4,3.4,0,0,0-1.165-.822c-.216-.052-.449.084-.694.41a.922.922,0,0,0,.042.987,1.5,1.5,0,0,0,1.164.756,5.578,5.578,0,0,1,2.039,1.151,6,6,0,0,1-3.472,1.372c-.9.014-1.339.266-1.325.76a1.326,1.326,0,0,0,.652.924,3.357,3.357,0,0,0,1.1.43,2.216,2.216,0,0,0,1.185-.266,9.727,9.727,0,0,0,2.963-2.194Zm2.165-7.117a7.856,7.856,0,0,1,.407-2.211.949.949,0,0,0-.164-.987,3.89,3.89,0,0,0-2.451-.819,7.223,7.223,0,0,0-2.409.042,4.414,4.414,0,0,1-.614,0,.714.714,0,0,0-.673.144.98.98,0,0,0-.142.861,5.8,5.8,0,0,1-.349,2.807.561.561,0,0,1-.429.307c-.9.164-1.279.574-1.143,1.232a.313.313,0,0,0,.021.081c.052.178.223.307.51.391a2.771,2.771,0,0,0,1.247-.144,11.734,11.734,0,0,1,5-.227,4.245,4.245,0,0,1,.9.185,1.737,1.737,0,0,0,1.349,0,1.72,1.72,0,0,0,.652-.738.676.676,0,0,0,.021-.7c-.094-.137-.422-.228-.98-.266a4.218,4.218,0,0,0-.756.038Zm-4.393-2.46c.286-.3,1.129-.339,2.535-.122a.537.537,0,0,1,.429.287,1.187,1.187,0,0,1,.122.7c-.014.343-.063.889-.143,1.641q-2.1,0-3.186.1c-.219,0-.32-.095-.306-.287A4.358,4.358,0,0,1,433.867,335.4Z" transform="translate(-332.176 -333.019)" fill="#73645f"/>
    <path id="路径_8" data-name="路径 8" d="M463.3,338.7a.8.8,0,0,0,.018.122,75.867,75.867,0,0,1-.018,7.709,2.552,2.552,0,0,0,.265,1.679q.612.635,1.08.122a3.036,3.036,0,0,0,.37-2.211q-.084-2.42.143-7.013a2.374,2.374,0,0,0-.391-1.7l-.038-.039a11.849,11.849,0,0,0,1.022-1.54,3.179,3.179,0,0,0,.61-1.907.477.477,0,0,0-.631-.346c-.178.053-.415.381-.715.983a7.028,7.028,0,0,1-1.412,1.578,7.3,7.3,0,0,1-2.367,1.519.8.8,0,0,0-.572.759.9.9,0,0,0,.467.8,1.3,1.3,0,0,0,1.29.063,6.108,6.108,0,0,0,.879-.574Zm7.23-1.169q.753-.451.572-1.025a2.006,2.006,0,0,0-.714-1.025.577.577,0,0,0-.942.245,8.671,8.671,0,0,1-2.758,3.034c-.258.136-.345.315-.265.531s.362.255.8.105a8.56,8.56,0,0,0,2.737-1.435,4.7,4.7,0,0,1,.571-.43Zm2.165-2.05a7.23,7.23,0,0,1,3.308,3.3q.612,1.25,2.636.718a2.26,2.26,0,0,0,1.144-.676.515.515,0,0,0,.142-.472c-.056-.137-.313-.28-.777-.43a17.721,17.721,0,0,1-4.8-3.076,2.289,2.289,0,0,0-1.346-.738,1.427,1.427,0,0,0-.9.186c-.286.217-.38.417-.286.595a2.942,2.942,0,0,0,.879.595Zm-.757,5.616a14.113,14.113,0,0,1-4.556,4.861,1.8,1.8,0,0,0-1.182.962c-.083.259.038.529.366.8a1.356,1.356,0,0,0,1,.326q1.658-.079,5.494-6.19a1.424,1.424,0,0,1,.429-.658,2.677,2.677,0,0,1,1.737.514.941.941,0,0,1,.268.924q-.126,1.165-2.312,3.2-1.04,1-.874,1.658a.686.686,0,0,0,.467.493.956.956,0,0,0,.756-.084q1.554-.671,3.615-4.776a1.943,1.943,0,0,1,.328-.616.488.488,0,0,0,.122-.325,2.452,2.452,0,0,0-.164-.658,2.534,2.534,0,0,1-.2-.654c-.056-.221-.342-.493-.858-.822a1.57,1.57,0,0,0-1.369-.06,5.84,5.84,0,0,1-2.859-.371,2.594,2.594,0,0,0-1.635-.164,2.873,2.873,0,0,0-1.123.78c-.22.329-.129.588.265.78a1.688,1.688,0,0,0,.938.1A4.121,4.121,0,0,1,471.936,341.1Z" transform="translate(-348.024 -333.164)" fill="#73645f"/>
    <path id="路径_9" data-name="路径 9" d="M507.751,345.291a23.91,23.91,0,0,1,4.738-.063.753.753,0,0,1,.244.042q.021,1.313.164,2.562a1.3,1.3,0,0,0,.349.7.934.934,0,0,0,.614.27,1.148,1.148,0,0,0,.815-.637,2.059,2.059,0,0,0-.041-1.456,23.3,23.3,0,0,1-.408-5.658,1.562,1.562,0,0,1,.226-.924.922.922,0,0,0-.063-.962,6.038,6.038,0,0,0-2.471-.27q-2.144-.016-4.288-.08a.4.4,0,0,0-.226.021.375.375,0,0,1,.1-.164,7.977,7.977,0,0,0,.634-1.456,11.3,11.3,0,0,1,2.572.021,7.445,7.445,0,0,1,3.6.963c.746.465,1.586.287,2.51-.532.014-.042.035-.063.063-.063q.879-1,.795-1.271c-.052-.206-.38-.322-.979-.35q-4.063-.184-8.294-.2a1.7,1.7,0,0,1,.143-.595,1.341,1.341,0,0,0,.021-1.109.813.813,0,0,0-.614-.43,1.209,1.209,0,0,0-.916.206c-.22.137-.286.458-.206.963a3.121,3.121,0,0,1-.042.986q-3.143,0-5.044.1a2.434,2.434,0,0,0-1.551.654,1.693,1.693,0,0,0-.656,1.232.773.773,0,0,0,.429.676,3.162,3.162,0,0,0,1.879-.287,18.789,18.789,0,0,1,4.577-.882q-1.1,2.608-5.007,4.041c-1.645.452-2.51.941-2.594,1.477a.585.585,0,0,0,0,.224c.014.221.178.409.491.574a1.635,1.635,0,0,0,1.224.186,12.087,12.087,0,0,0,6.293-4.122,1.4,1.4,0,0,0,.041.266,7.688,7.688,0,0,1-1.206,5.578,13.582,13.582,0,0,1-1.471,1.536c-.736.577-.851,1.067-.345,1.476a1.152,1.152,0,0,0,.938.452q.513.021,1.245-.759a9.777,9.777,0,0,0,1.719-2.929Zm2.573-1.519c-.941.014-1.642.007-2.106-.021.056-.381.118-.752.185-1.106a15.877,15.877,0,0,1,3.392-.084c.328.014.652.042.98.084-.014.339-.028.7-.042,1.064q-.632.02-2.409.063Zm2.43-2.5a25.338,25.338,0,0,1-4.288.042,1.934,1.934,0,0,1,.143-.861c.094-.122.557-.186,1.387-.186a15.317,15.317,0,0,1,2.27.081.372.372,0,0,1,.286.143,1.665,1.665,0,0,1,.244.78Z" transform="translate(-363.618 -333.193)" fill="#73645f"/>
    <path id="路径_10" data-name="路径 10" d="M538.355,336.023q.451,1.045.1,10.907a3.3,3.3,0,0,0,.286,1.7c.216.452.464.682.736.7.244,0,.45-.164.61-.494a2.805,2.805,0,0,0,.248-1.312c-.014-1.35-.042-2.59-.084-3.709a3.588,3.588,0,0,0,3.106-.861q1.349-.635,1.206-1.764a3.944,3.944,0,0,0-1.185-2.421q-.513-.51.1-1.292a2.285,2.285,0,0,0,1.063-1.434,1.21,1.21,0,0,0-.429-.78,2.311,2.311,0,0,0-1.635-.49,4.189,4.189,0,0,1-1.614-.287,3.645,3.645,0,0,0-1.53-.042,1.384,1.384,0,0,0-.9.472.915.915,0,0,0-.307.8.526.526,0,0,0,.223.307Zm1.862,1.334a3.582,3.582,0,0,1,.286-1.456,3.008,3.008,0,0,1,1.509.164.439.439,0,0,1,.39.186,2.685,2.685,0,0,1-.432,1.291,2.372,2.372,0,0,1-.672.738q-.754.572-.593,1.168c.083.3.293.34.634.123a.613.613,0,0,1,.735-.042,1.783,1.783,0,0,1,.715,1.046c.094.343-.091.7-.551,1.088a3.131,3.131,0,0,1-2,1.085q-.016-3.585-.018-5.392Zm7.823-2.849q-1.9-.331-2.555.388a1.507,1.507,0,0,0-.265,1.126q.183,1.911.063,7.957a6.3,6.3,0,0,1-.555,2.684,7.4,7.4,0,0,0-1.122,1.291.93.93,0,0,0,.164,1.046,1.09,1.09,0,0,0,1.551-.021,17.972,17.972,0,0,1,4.291-2.317c.5-.245.75-.451.736-.615-.042-.175-.315-.252-.819-.224a17.819,17.819,0,0,0-2.409.206c-.177.014-.279.007-.306-.021-.095-.056-.136-.273-.122-.658q.063-1.559.021-3.527a2.065,2.065,0,0,1,.1-.84q.183-.268,2.35-.2a5.024,5.024,0,0,1,1.021.1,2.009,2.009,0,0,0,1.778-.514,2.879,2.879,0,0,0,.45-1.434,9.266,9.266,0,0,1,.774-2.338,1.535,1.535,0,0,0,.063-1.312q-.45-.677-2.207-.633-2.756-.084-3-.144Zm-1.105,3.667c.261-.039.927-.067,2-.081a12.473,12.473,0,0,1,1.959.063.237.237,0,0,0,.021.018,2.415,2.415,0,0,1-.226,1.231,24.38,24.38,0,0,1-3,.1.9.9,0,0,1-.673-.182c-.1-.084-.15-.465-.164-1.151Zm2.022-1.25a14.542,14.542,0,0,1-2.06-.063.075.075,0,0,1,.017-.038,1.645,1.645,0,0,1,.206-.882q.267-.388,2.678-.206c.586.014.931.109,1.039.287a2.309,2.309,0,0,1,.125.861q-.429.021-2,.042Zm.879,6.971q.92.493,2.147,3.076a1.8,1.8,0,0,0,1.774.983,5.705,5.705,0,0,0,2.7-.717q.632-.509-.512-.819a7.946,7.946,0,0,1-3.044-1.333,7.019,7.019,0,0,1-1.489-1.7,6.008,6.008,0,0,1,.673-.287q.858-.247.8-.86a1.969,1.969,0,0,0-.429-1.169.575.575,0,0,0-.958,0,10.212,10.212,0,0,1-3.556,2.3c-.286.056-.415.2-.387.452.014.216.258.315.736.287C548.79,344.047,549.305,343.981,549.836,343.9Z" transform="translate(-379.685 -333.503)" fill="#73645f"/>
    <path id="路径_11" data-name="路径 11" d="M580.219,337.224a1.464,1.464,0,0,1-.345.924,3.808,3.808,0,0,1-3.6,1.168c-.938-.126-1.436.053-1.489.532a1.287,1.287,0,0,0,.488,1.046,4.3,4.3,0,0,0,1.042.655,1.587,1.587,0,0,0,.959-.06,7.114,7.114,0,0,0,4.106-3.1,2.724,2.724,0,0,0,.513-1.211,1.019,1.019,0,0,0-.328-.819.807.807,0,0,0-.635-.248.717.717,0,0,0-.571.27,1.161,1.161,0,0,0-.143.84Zm5.351,1.106a28.347,28.347,0,0,0,3.351,2.852,3.192,3.192,0,0,0,3.166.633,3.967,3.967,0,0,0,2.105-1.456c.3-.49.129-.7-.512-.613a8.376,8.376,0,0,1-6.231-1.518,1.548,1.548,0,0,1-.508-.637,1.782,1.782,0,0,0-1.085-1.333,1.154,1.154,0,0,0-.979.021c-.258.137-.3.43-.122.882a3.307,3.307,0,0,0,.816,1.168Zm-4.389,5.046a7.687,7.687,0,0,1-.861.881,5.488,5.488,0,0,0-1.325,1.6,2.244,2.244,0,0,0,.059,1.6,2.288,2.288,0,0,0,1.858,1.19,23,23,0,0,0,2.841.018c.408-.014.9-.014,1.471,0a8.549,8.549,0,0,0,2-.143,2.723,2.723,0,0,0,1.366-.8,1.216,1.216,0,0,0,.206-1,6.309,6.309,0,0,0-2.144-3.507,2.347,2.347,0,0,0-.963-.595.535.535,0,0,0-.589.186.828.828,0,0,0-.125.633,2.4,2.4,0,0,0,.756,1.025,4.377,4.377,0,0,1,1.064,1.722c.094.371-.077.595-.513.679a13.157,13.157,0,0,1-4.532.1c-.572-.137-.907-.343-1-.616a1.131,1.131,0,0,1,.125-.861,6.653,6.653,0,0,1,2.144-1.658,3.124,3.124,0,0,0,1.042-1.582,1.015,1.015,0,0,0-.328-1.025.93.93,0,0,0-.857-.224,1.427,1.427,0,0,0-.777.8A12.915,12.915,0,0,1,581.181,343.376Z" transform="translate(-394.67 -334.21)" fill="#73645f"/>
    <path id="路径_12" data-name="路径 12" d="M617.977,337.159a7.333,7.333,0,0,0-1.879.08,1.905,1.905,0,0,0-1.265.843.9.9,0,0,0,.042,1.043q.387.556,1.858,0a14.079,14.079,0,0,1,6.393-.41,2.03,2.03,0,0,0,2.35-1,.183.183,0,0,1,.038-.122c.056-.287-.271-.423-.979-.41q-6.375,0-6.558-.021Zm3.678,7.544a1.919,1.919,0,0,0,1.656-.329,2,2,0,0,0,.488-1.658,4.245,4.245,0,0,1,.184-.553,1.414,1.414,0,0,0-.429-1.355q-.7-.514-6.435-.287a1.387,1.387,0,0,0-.9.266c-.286.206-.345,1.106-.181,2.708a1.442,1.442,0,0,0,.572,1.372,2.655,2.655,0,0,0,1.509,0,10.614,10.614,0,0,1,3.535-.165Zm-2.144-3.012a8.344,8.344,0,0,1,2.573.122c.056.042.087.221.1.532.014.413-.021.657-.1.738a1.008,1.008,0,0,1-.614.123c-.544-.011-1.621.028-3.229.126a.986.986,0,0,1-.572-.084c-.052-.014-.1-.171-.143-.472a2.313,2.313,0,0,1-.059-.861,7.6,7.6,0,0,1,2.043-.224Zm1.164-6.089q6.207-.577,6.8-.063a2.134,2.134,0,0,1,.614,1.784q-.063,2.4-.164,4.591a3.612,3.612,0,0,1-1.408,3.1,8.506,8.506,0,0,1-3.535,1.5q-.942.2-1,.86-.063.7.795,1.169a2.312,2.312,0,0,0,2.269-.206,11.962,11.962,0,0,0,2.96-1.844,5.465,5.465,0,0,0,1.37-1.949,8.66,8.66,0,0,0,.265-2.911,26.164,26.164,0,0,1,.244-6.088,1.37,1.37,0,0,0,0-.819,1.247,1.247,0,0,0-.345-.536q-.491-.389-3.35-.287a27.656,27.656,0,0,1-5.334-.326,3.025,3.025,0,0,0-2.347.41.751.751,0,0,0-.206,1.228Q618.755,335.724,620.676,335.6Z" transform="translate(-410.984 -333.14)" fill="#73645f"/>
  </g>
  <g id="组_2" data-name="组 2" transform="translate(188.665 30.257)">
    <path id="路径_13" data-name="路径 13" d="M490.6,374.968l-.4,1.9h-.248a3.869,3.869,0,0,0-1.115-1.147,3.048,3.048,0,0,0-1.726-.551,3.432,3.432,0,0,0-3.048,1.729,6.79,6.79,0,0,0-.967,3.709,6.721,6.721,0,0,0,1.04,3.953,3.427,3.427,0,0,0,2.976,1.47,4.086,4.086,0,0,0,1.552-.315,4.565,4.565,0,0,0,1.6-1.068l.233.109-.378,1.587a5.851,5.851,0,0,1-1.773.646,8.761,8.761,0,0,1-1.687.141,6.425,6.425,0,0,1-4.422-1.541,6.288,6.288,0,0,1-1.977-4.982,6.174,6.174,0,0,1,2.036-4.9,7.738,7.738,0,0,1,6.62-1.406,7.32,7.32,0,0,1,1.687.669Z" transform="translate(-480.256 -373.853)" fill="#73645f"/>
    <path id="路径_14" data-name="路径 14" d="M507.833,381.768a4.047,4.047,0,0,0-3.025-1.155,3.956,3.956,0,0,0-3.177,1.336,5.058,5.058,0,0,0-1.085,3.395,4.676,4.676,0,0,0,1.091,3.245,4.388,4.388,0,0,0,6.233-.164,5.3,5.3,0,0,0,1.1-3.5A4.3,4.3,0,0,0,507.833,381.768Zm-1.81,5.979c-.312.827-.753,1.242-1.316,1.242a1.3,1.3,0,0,1-1.217-.965,7.294,7.294,0,0,1-.395-2.68,8.426,8.426,0,0,1,.352-2.749c.281-.775.736-1.165,1.361-1.165a1.247,1.247,0,0,1,1.141.707,5.923,5.923,0,0,1,.484,2.783A8.192,8.192,0,0,1,506.023,387.747Z" transform="translate(-488.55 -376.527)" fill="#73645f"/>
    <path id="路径_15" data-name="路径 15" d="M522.927,383.048l-.148.158a1.7,1.7,0,0,0-.907-.25,1.425,1.425,0,0,0-1.243.573,2.7,2.7,0,0,0-.411,1.6v4.446h-2.374v-8.723h2.374v2.294a3.842,3.842,0,0,1,.819-1.729,2.422,2.422,0,0,1,1.89-.8v2.435Z" transform="translate(-495.62 -376.527)" fill="#73645f"/>
    <path id="路径_16" data-name="路径 16" d="M536.648,381.8a2.87,2.87,0,0,0-2.455-1.187,2.276,2.276,0,0,0-1.493.5,2.948,2.948,0,0,0-.835,1.193v-1.461H529.49v13.437h2.374V388.5a2.341,2.341,0,0,0,2.21,1.3,2.962,2.962,0,0,0,2.549-1.351,6.725,6.725,0,0,0,.024-6.657Zm-2.107,5.9a1.349,1.349,0,0,1-1.226.911,1.166,1.166,0,0,1-1.091-.841,6.419,6.419,0,0,1-.359-2.427,6.691,6.691,0,0,1,.4-2.63,1.3,1.3,0,0,1,1.208-.905,1.2,1.2,0,0,1,1.148.841,6.748,6.748,0,0,1,.359,2.522A5.928,5.928,0,0,1,534.541,387.7Z" transform="translate(-500.381 -376.527)" fill="#73645f"/>
    <path id="路径_17" data-name="路径 17" d="M553.151,381.768a4.045,4.045,0,0,0-3.024-1.155,3.955,3.955,0,0,0-3.177,1.336,5.058,5.058,0,0,0-1.085,3.395,4.681,4.681,0,0,0,1.09,3.245,4.39,4.39,0,0,0,6.234-.164,5.3,5.3,0,0,0,1.1-3.5A4.3,4.3,0,0,0,553.151,381.768Zm-1.81,5.979c-.312.827-.753,1.242-1.316,1.242a1.3,1.3,0,0,1-1.217-.965,7.3,7.3,0,0,1-.394-2.68,8.446,8.446,0,0,1,.351-2.749c.282-.775.737-1.165,1.362-1.165a1.246,1.246,0,0,1,1.141.707,5.923,5.923,0,0,1,.484,2.783A8.192,8.192,0,0,1,551.341,387.747Z" transform="translate(-507.074 -376.527)" fill="#73645f"/>
    <path id="路径_18" data-name="路径 18" d="M568.245,383.048l-.148.158a1.7,1.7,0,0,0-.907-.25,1.425,1.425,0,0,0-1.244.573,2.7,2.7,0,0,0-.411,1.6v4.446h-2.374v-8.723h2.374v2.294a3.848,3.848,0,0,1,.819-1.729,2.424,2.424,0,0,1,1.891-.8v2.435Z" transform="translate(-514.145 -376.527)" fill="#73645f"/>
    <path id="路径_19" data-name="路径 19" d="M581.112,388.88q-.5,0-.5-.646v-4.823a2.558,2.558,0,0,0-.849-2.107,3.794,3.794,0,0,0-2.446-.691,5.028,5.028,0,0,0-1.687.305,3.835,3.835,0,0,0-1.479.937l.206,1.1h.263a1.824,1.824,0,0,1,.716-.824,2.038,2.038,0,0,1,2.337.1,1.382,1.382,0,0,1,.564,1.184v.677c-.674.187-1.343.378-2.006.565a5.266,5.266,0,0,0-1.862.991,2.508,2.508,0,0,0-.805,1.916,2.173,2.173,0,0,0,.631,1.634,2.434,2.434,0,0,0,1.773.613,2.714,2.714,0,0,0,1.31-.337,2.306,2.306,0,0,0,.96-1,2,2,0,0,0,.652.982,1.639,1.639,0,0,0,1.048.354,2.533,2.533,0,0,0,.835-.173c.156-.051.4-.153.717-.3V388.8A.946.946,0,0,1,581.112,388.88Zm-2.871-2.311a2.864,2.864,0,0,1-.336,1.493,1.064,1.064,0,0,1-.954.55.819.819,0,0,1-.792-.472,2.205,2.205,0,0,1-.174-.974,1.988,1.988,0,0,1,.818-1.68,6.091,6.091,0,0,1,1.437-.66Z" transform="translate(-518.398 -376.527)" fill="#73645f"/>
    <path id="路径_20" data-name="路径 20" d="M593.153,387.235a7.927,7.927,0,0,1-.859.292,3.521,3.521,0,0,1-.958.132,1.881,1.881,0,0,1-1.684-.786,3.634,3.634,0,0,1-.47-2.043v-5.043H588.04v-1.1h1.142v-2.2l2.374-1.164v3.365h1.421v1.1h-1.421v5.2a3.448,3.448,0,0,0,.168,1.329.672.672,0,0,0,.667.337,2.264,2.264,0,0,0,.762-.124v.705Z" transform="translate(-524.314 -374.363)" fill="#73645f"/>
    <path id="路径_21" data-name="路径 21" d="M602.165,375.162a1.476,1.476,0,0,1-.4,1.041,1.315,1.315,0,0,1-1.933,0,1.563,1.563,0,0,1,0-2.078,1.315,1.315,0,0,1,1.933,0,1.473,1.473,0,0,1,.4,1.037Z" transform="translate(-528.974 -373.702)" fill="#73645f"/>
    <path id="路径_22" data-name="路径 22" d="M602.11,389.734h-2.374v-8.722h2.374v8.722Z" transform="translate(-529.095 -376.69)" fill="#73645f"/>
    <path id="路径_23" data-name="路径 23" d="M614.081,381.768a4.045,4.045,0,0,0-3.024-1.155,3.956,3.956,0,0,0-3.177,1.336,5.059,5.059,0,0,0-1.085,3.395,4.681,4.681,0,0,0,1.09,3.245,4.39,4.39,0,0,0,6.234-.164,5.3,5.3,0,0,0,1.1-3.5A4.3,4.3,0,0,0,614.081,381.768Zm-1.81,5.979c-.312.827-.753,1.242-1.317,1.242a1.3,1.3,0,0,1-1.217-.965,7.321,7.321,0,0,1-.394-2.68,8.442,8.442,0,0,1,.352-2.749c.283-.775.736-1.165,1.362-1.165a1.249,1.249,0,0,1,1.142.707,5.931,5.931,0,0,1,.484,2.783A8.208,8.208,0,0,1,612.271,387.747Z" transform="translate(-531.98 -376.527)" fill="#73645f"/>
    <path id="路径_24" data-name="路径 24" d="M631.738,389.571h-2.374v-4.965a4.039,4.039,0,0,0-.307-1.761,1.159,1.159,0,0,0-1.1-.691,1.2,1.2,0,0,0-1.12.7,3.672,3.672,0,0,0-.373,1.752v4.965h-2.374v-8.723h2.374v1.334a2.8,2.8,0,0,1,.849-.956,2.922,2.922,0,0,1,1.788-.614,2.281,2.281,0,0,1,2.079.959,5.042,5.042,0,0,1,.556,2.672Z" transform="translate(-539.05 -376.527)" fill="#73645f"/>
  </g>
  <g id="组_4" data-name="组 4" transform="translate(64.447 30.498)">
    <path id="路径_25" data-name="路径 25" d="M447.653,381.664a1.485,1.485,0,0,1,1.266.662,2.938,2.938,0,0,1,.459,1.233h.419l.646-1.88a5.066,5.066,0,0,0-1.344-.634,5.364,5.364,0,0,0-1.445-.183,4.609,4.609,0,0,0-3.205,1.111,4.409,4.409,0,0,0-1.353,3.457,4.542,4.542,0,0,0,1.144,3.247,4.205,4.205,0,0,0,3.214,1.21,4.5,4.5,0,0,0,1.258-.156,3.986,3.986,0,0,0,1.07-.491l.416-1.112-.287-.246a3.583,3.583,0,0,1-.841.639,2.424,2.424,0,0,1-2.817-.686,4.4,4.4,0,0,1-.653-2.637,5.281,5.281,0,0,1,.5-2.363A1.741,1.741,0,0,1,447.653,381.664Z" transform="translate(-340.848 -376.87)" fill="#73645f"/>
    <path id="路径_26" data-name="路径 26" d="M464.748,388.488a2.669,2.669,0,0,1-1.078.232,1.984,1.984,0,0,1-1.7-.827,4.208,4.208,0,0,1-.6-2.489h4.862a6.035,6.035,0,0,0-.733-3.335,3.088,3.088,0,0,0-2.762-1.233,3.807,3.807,0,0,0-2.561.861,4.272,4.272,0,0,0-1.307,3.443,5.217,5.217,0,0,0,1.02,3.394,4.328,4.328,0,0,0,4.408,1.149,6.008,6.008,0,0,0,1.216-.594l.388-1.032-.2-.17A3.533,3.533,0,0,1,464.748,388.488Zm-3.056-6.062a1.082,1.082,0,0,1,1.028-.787c.422,0,.732.3.935.911a6.063,6.063,0,0,1,.229,1.851h-2.518A5.2,5.2,0,0,1,461.692,382.426Z" transform="translate(-347.295 -376.86)" fill="#73645f"/>
    <path id="路径_27" data-name="路径 27" d="M342.181,381.252a2.881,2.881,0,0,0-1.756.6,2.763,2.763,0,0,0-.833.939v-1.31h-2.331v8.563h2.331v-4.874a3.61,3.61,0,0,1,.367-1.72,1.181,1.181,0,0,1,1.1-.687,1.138,1.138,0,0,1,1.077.679,3.952,3.952,0,0,1,.3,1.728v4.874h2.331v-5.231a4.957,4.957,0,0,0-.547-2.623A2.24,2.24,0,0,0,342.181,381.252Z" transform="translate(-297.588 -377.029)" fill="#73645f"/>
    <path id="路径_28" data-name="路径 28" d="M395.507,381.252a2.878,2.878,0,0,0-1.755.6,2.756,2.756,0,0,0-.833.939v-1.31h-2.331v8.563h2.331v-4.874a3.6,3.6,0,0,1,.367-1.72,1.18,1.18,0,0,1,1.1-.687,1.138,1.138,0,0,1,1.077.679,3.961,3.961,0,0,1,.3,1.728v4.874h2.331v-5.231a4.957,4.957,0,0,0-.546-2.623A2.241,2.241,0,0,0,395.507,381.252Z" transform="translate(-319.385 -377.029)" fill="#73645f"/>
    <path id="路径_29" data-name="路径 29" d="M431.05,381.252a2.881,2.881,0,0,0-1.756.6,2.762,2.762,0,0,0-.833.939v-1.31H426.13v8.563h2.331v-4.874a3.61,3.61,0,0,1,.367-1.72,1.181,1.181,0,0,1,1.1-.687,1.138,1.138,0,0,1,1.077.679,3.951,3.951,0,0,1,.3,1.728v4.874h2.331v-5.231a4.956,4.956,0,0,0-.547-2.623A2.24,2.24,0,0,0,431.05,381.252Z" transform="translate(-333.914 -377.029)" fill="#73645f"/>
    <path id="路径_30" data-name="路径 30" d="M415.547,388.977c-.324,0-.488-.212-.488-.633v-4.735a2.507,2.507,0,0,0-.833-2.068,3.719,3.719,0,0,0-2.4-.679,4.94,4.94,0,0,0-1.655.3,3.784,3.784,0,0,0-1.454.92l.2,1.081h.259a1.786,1.786,0,0,1,.7-.809,2,2,0,0,1,2.294.093,1.358,1.358,0,0,1,.554,1.163v.664q-.993.277-1.969.555a5.177,5.177,0,0,0-1.828.973,2.463,2.463,0,0,0-.791,1.881,2.129,2.129,0,0,0,.62,1.6,2.383,2.383,0,0,0,1.739.6,2.671,2.671,0,0,0,1.286-.331,2.256,2.256,0,0,0,.941-.98,1.963,1.963,0,0,0,.641.964,1.6,1.6,0,0,0,1.028.347,2.469,2.469,0,0,0,.82-.169c.153-.05.388-.15.7-.294V388.9A.941.941,0,0,1,415.547,388.977Zm-2.818-2.269a2.811,2.811,0,0,1-.33,1.465,1.044,1.044,0,0,1-.936.541.806.806,0,0,1-.777-.465,2.174,2.174,0,0,1-.171-.956,1.951,1.951,0,0,1,.8-1.649,5.957,5.957,0,0,1,1.411-.647Z" transform="translate(-326.561 -376.87)" fill="#73645f"/>
    <g id="组_3" data-name="组 3" transform="translate(65.28 0.211)">
      <rect id="矩形_1" data-name="矩形 1" width="2.331" height="8.563" transform="translate(0.171 4.243)" fill="#73645f"/>
      <path id="路径_31" data-name="路径 31" d="M381.907,374.467a1.248,1.248,0,0,0-.949.416,1.537,1.537,0,0,0,0,2.04,1.292,1.292,0,0,0,1.9,0,1.535,1.535,0,0,0,0-2.04A1.247,1.247,0,0,0,381.907,374.467Z" transform="translate(-380.571 -374.467)" fill="#73645f"/>
    </g>
    <path id="路径_32" data-name="路径 32" d="M323.55,380.862a3.884,3.884,0,0,0-3.118,1.311,4.965,4.965,0,0,0-1.065,3.333,4.593,4.593,0,0,0,1.069,3.184,4.31,4.31,0,0,0,6.12-.161,5.2,5.2,0,0,0,1.079-3.44A4.219,4.219,0,0,0,326.519,382,3.971,3.971,0,0,0,323.55,380.862Zm1.193,7c-.306.812-.738,1.22-1.292,1.22a1.28,1.28,0,0,1-1.2-.948,7.186,7.186,0,0,1-.386-2.63,8.33,8.33,0,0,1,.344-2.7q.415-1.141,1.337-1.143a1.221,1.221,0,0,1,1.12.694,5.813,5.813,0,0,1,.475,2.732A8.048,8.048,0,0,1,324.743,387.865Z" transform="translate(-290.273 -376.87)" fill="#73645f"/>
    <path id="路径_33" data-name="路径 33" d="M274.256,387.691V382.58l-4.1-7.09h2.8l2.976,5.152,3.108-5.152h2.011l-4.262,7.073v5.128Z" transform="translate(-270.159 -374.674)" fill="#73645f"/>
    <path id="路径_34" data-name="路径 34" d="M297.315,389.52v-1.707a3.534,3.534,0,0,1-3.084,1.913,2.462,2.462,0,0,1-1.912-.766,2.984,2.984,0,0,1-.7-2.094v-6.4h2.441v5.8q0,1.541,1.03,1.541,1.155,0,2.227-1.641v-5.7h2.44v9.052Z" transform="translate(-278.931 -376.709)" fill="#73645f"/>
    <path id="路径_35" data-name="路径 35" d="M310.539,387.127V374.11h2.441v13.017Z" transform="translate(-286.665 -374.11)" fill="#73645f"/>
    <path id="路径_36" data-name="路径 36" d="M364.371,387.691v-12.2h7.676v1.673H366.91v3.71h4.221v1.682H366.91v5.136Z" transform="translate(-308.669 -374.674)" fill="#73645f"/>
  </g>
</svg>
